<svg xmlns="http://www.w3.org/2000/svg" viewBox="0 0 160 160" width="160" height="160">
  <defs>
    <filter id="shadow" x="-10%" y="-10%" width="120%" height="120%">
      <feDropShadow dx="0" dy="4" stdDeviation="6" flood-color="#000" flood-opacity="0.18"/>
    </filter>
    <linearGradient id="duckGrad" x1="0" y1="0" x2="0" y2="1">
      <stop offset="0%" stop-color="#ffeb3b"/>
      <stop offset="100%" stop-color="#fbc02d"/>
    </linearGradient>
    <linearGradient id="pepeGrad" x1="0" y1="0" x2="0" y2="1">
      <stop offset="0%" stop-color="#8bc34a"/>
      <stop offset="100%" stop-color="#689f38"/>
    </linearGradient>
    <linearGradient id="catGrad" x1="0" y1="0" x2="0" y2="1">
      <stop offset="0%" stop-color="#ffcc80"/>
      <stop offset="100%" stop-color="#ffa726"/>
    </linearGradient>
    <linearGradient id="dogeGrad" x1="0" y1="0" x2="0" y2="1">
      <stop offset="0%" stop-color="#ffe082"/>
      <stop offset="100%" stop-color="#ffb300"/>
    </linearGradient>
  </defs>
  <g filter="url(#shadow)">
    
    <!-- Body -->
    <ellipse cx="80" cy="90" rx="45" ry="40" fill="url(#duckGrad)"/>
    <!-- Head -->
    <circle cx="80" cy="55" r="32" fill="url(#duckGrad)"/>
    <!-- Heart Eyes -->
    <path d="M 66 48 C 66 44 60 40 56 46 C 52 52 66 60 66 60 C 66 60 80 52 76 46 C 72 40 66 44 66 48 Z" fill="#e91e63"/>
    <path d="M 94 48 C 94 44 88 40 84 46 C 80 52 94 60 94 60 C 94 60 108 52 104 46 C 100 40 94 44 94 48 Z" fill="#e91e63"/>
    <!-- Beak (open happy) -->
    <path d="M 72 62 Q 80 72 88 62 Z" fill="#ff9800"/>
    <!-- Big Heart in hands -->
    <path d="M 80 85 C 80 75 66 68 58 78 C 50 88 80 108 80 108 C 80 108 110 88 102 78 C 94 68 80 75 80 85 Z" fill="#f44336"/>
  
  </g>
</svg>